<mxfile host="app.diagrams.net" modified="2024-03-17T06:57:51.357Z" agent="Mozilla/5.0 (Macintosh; Intel Mac OS X 10.15; rv:123.0) Gecko/20100101 Firefox/123.0" version="24.0.7" etag="wUPMzV3EODZRCDehyUEQ" type="github">
  <diagram name="Page-1" id="zH526Fm0Hkvuw_LL7cF2">
    <mxGraphModel>
      <root>
        <mxCell id="0" />
        <mxCell id="1" parent="0" />
      </root>
    </mxGraphModel>
  </diagram>
</mxfile>
